<svg
  version="1.0"
  xmlns="http://www.w3.org/2000/svg"
  width="222.000000pt"
  height="222.000000pt"
  viewBox="0 0 222.000000 222.000000"
  preserveAspectRatio="xMidYMid meet"
>
  <g
    transform="translate(0.000000,222.000000) scale(0.100000,-0.100000)"
    fill="#000000"
    stroke="none"
  >
    <path
      d="M685 1586 c-22 -7 -56 -21 -75 -31 -48 -25 -145 -120 -162 -158 -13
-32 -13 -31 -19 40 -9 125 -42 143 -259 143 l-150 0 0 -120 0 -120 60 0 c48 0
61 -4 70 -19 6 -13 10 -171 10 -445 l0 -426 140 0 140 0 0 274 c0 303 9 381
57 468 97 179 325 214 374 59 7 -23 13 -177 16 -418 l5 -383 139 0 139 0 0
291 c0 307 6 363 51 451 83 163 291 213 364 88 19 -33 20 -56 25 -392 5 -342
6 -358 26 -385 35 -47 58 -53 207 -53 l137 0 0 114 0 114 -35 6 c-19 4 -39 15
-45 26 -6 11 -10 125 -10 287 0 201 -4 284 -15 331 -29 120 -82 194 -173 239
-52 26 -66 28 -172 28 -98 0 -124 -4 -173 -24 -73 -29 -152 -92 -194 -154
l-31 -46 -27 54 c-34 71 -111 140 -178 160 -61 18 -186 19 -242 1z"
    />
  </g>
</svg>